Coordinates
version=1
nRows=16
nColumns=36
inDegrees=yes

Units are S.I. units (second, meters, Newtons, ...)
If the header above contains a line with 'inDegrees', this indicates whether rotational values are in degrees (yes) or radians (no).

endheader
time	pelvis_tilt	pelvis_list	pelvis_rotation	pelvis_tx	pelvis_ty	pelvis_tz	hip_flexion_r	hip_adduction_r	hip_rotation_r	knee_angle_r	knee_angle_r_beta	ankle_angle_r	subtalar_angle_r	mtp_angle_r	hip_flexion_l	hip_adduction_l	hip_rotation_l	knee_angle_l	knee_angle_l_beta	ankle_angle_l	subtalar_angle_l	mtp_angle_l	lumbar_extension	lumbar_bending	lumbar_rotation	arm_flex_r	arm_add_r	arm_rot_r	elbow_flex_r	pro_sup_r	arm_flex_l	arm_add_l	arm_rot_l	elbow_flex_l	pro_sup_l
      2.50000000	     -7.53621907	      0.19366223	      4.09235179	      0.33457225	      1.50308136	     -0.03750791	      8.06048464	     -2.20665378	     -5.04423787	      2.62446677	      0.04580559	    -20.92242288	     -0.53506989	     -7.49999987	     10.80836906	     -4.48237836	     -1.86375408	      5.48806347	      0.09578478	    -11.00202035	      5.32424776	     -7.49999987	     -3.58228543	     -1.43586011	    -11.93297936	     95.07888407	    -47.45657370	     30.04087184	    113.89220485	     98.83407258	     19.52417310	    -75.98279310	    -35.09396685	    119.42972697	     87.01203128
      2.51666670	     -7.53544591	      0.02199320	      3.74408076	      0.33832672	      1.51362859	     -0.04310052	      8.19326370	     -2.06529794	     -4.93034287	      2.68622180	      0.04688341	    -20.64654188	     -1.42928341	     -7.49999987	     10.96741343	     -4.33327545	     -1.01659646	      5.07245848	      0.08853110	     -9.21388357	      5.31540330	     -7.49999987	     -3.38354965	     -1.01612933	    -10.59096771	     93.12870649	    -50.72287990	     30.69013935	    114.62628584	     98.50894462	     17.18277401	    -73.41508309	    -34.57407555	    117.87362519	     87.22140987
      2.53333330	     -7.67809382	     -0.09460971	      3.40194051	      0.33522745	      1.52376349	     -0.03880903	      8.43671118	     -1.88893660	     -4.60153424	      2.49896875	      0.04361523	    -20.64364811	     -2.00437022	     -7.49999987	     11.29434561	     -4.31926765	     -0.29073182	      4.80825134	      0.08391982	     -8.13738552	      5.05848887	     -7.49999987	     -3.38647127	     -0.91773463	     -9.07909607	     90.98401396	    -53.81315754	     31.11768447	    114.28271655	     98.18723943	     15.51137001	    -70.93454789	    -34.85676970	    116.71289457	     87.29180072
      2.55000000	     -7.91617109	     -0.23666229	      3.12135809	      0.33541865	      1.51854547	     -0.03726053	      8.94782662	     -1.65809720	     -4.36888137	      2.49500533	      0.04354606	    -21.16674367	     -3.62366183	     -7.49999987	     11.85403962	     -4.39887279	      0.54511233	      5.05176446	      0.08816992	     -7.24771293	      4.19956964	     -7.49999987	     -4.24852693	     -0.23931357	    -14.17581520	     91.43856137	    -47.22799072	     33.01077136	    110.09395960	     95.25528563	    -19.87719103	    -67.94759173	    -72.23526413	    120.42559841	     85.23943139
      2.56666670	     -8.18405876	     -0.35959448	      2.80387333	      0.33598613	      1.51889373	     -0.03697870	      9.43082526	     -1.57104194	     -4.25192927	      2.28023041	      0.03979753	    -21.40497345	     -4.41801250	     -7.49999987	     12.30988787	     -4.48585046	      1.18048289	      5.19599096	      0.09068715	     -6.58667594	      3.24651908	     -7.49999987	     -4.21215536	     -0.46223018	    -13.43087440	     90.39663866	    -49.30424831	     33.48022222	    109.83663359	     92.19499335	    -21.30202776	    -66.44741347	    -72.36211826	    120.90277124	     83.00239611
      2.58333330	     -8.29161419	     -0.51070233	      2.60613270	      0.33606554	      1.52247869	     -0.03748824	      9.70743582	     -1.39723630	     -4.19245902	      2.27317296	      0.03967435	    -21.81706268	     -4.89416628	     -7.49999987	     12.62768266	     -4.62577059	      1.85968713	      5.44611544	      0.09505265	     -6.35884587	      2.11322307	     -7.49999987	     -4.30757189	     -0.51175362	    -13.55866370	     89.03762458	    -49.66190211	     33.14925714	    109.64654985	     93.26114965	    -23.45028809	    -63.70268754	    -73.60953387	    121.97593735	     83.91706522
      2.60000000	     -8.43518894	     -0.50302778	      2.50455508	      0.33648503	      1.52187768	     -0.03818519	      9.83976138	     -1.43454023	     -4.06437286	      2.09235620	      0.03651850	    -22.32337238	     -4.96085463	     -7.49999987	     12.89932030	     -4.55073408	      2.47271218	      5.70827002	      0.09962811	     -6.33085903	      1.07919115	     -7.49999987	     -4.50381219	     -0.86015038	    -13.38679203	     86.36460498	    -52.02100989	     33.22240224	    110.66959807	     91.75586170	    -23.15878071	    -61.18045037	    -72.19684485	    123.37921390	     82.31511865
      2.61666670	     -8.58602523	     -0.53056231	      2.37701384	      0.33643249	      1.50871924	     -0.03658839	     10.09656866	     -1.51284187	     -3.95416936	      2.00353681	      0.03496831	    -22.95951516	     -5.09989721	     -7.49999987	     13.22593781	     -4.57121409	      2.68615500	      5.88425355	      0.10269960	     -6.69595399	      0.08461349	     -7.49999987	     -4.47112891	     -0.88216995	    -12.30212175	     84.48677269	    -54.77543814	     33.24183340	    112.38566786	     92.33904287	    -20.54191100	    -59.51392289	    -68.86659220	    123.66703531	     82.33754047
      2.63333330	     -8.66261611	     -0.30623090	      2.35783106	      0.33690425	      1.50411902	     -0.03674800	     10.12317001	     -1.94969996	     -3.53180583	      1.59887440	      0.02790562	    -23.26899451	     -4.61615415	     -7.49999987	     13.55400356	     -4.27996824	      2.79724947	      6.15563631	      0.10743612	     -7.44989710	     -0.31107069	     -7.49999987	     -4.55063869	     -1.21385288	    -12.17108267	     82.46800726	    -55.82296774	     32.67574208	    113.10404988	     90.71091134	    -19.87439417	    -57.70841456	    -67.45143700	    123.72662194	     81.04659228
      2.65000000	     -8.63756486	     -0.13683365	      2.43992263	      0.34443690	      1.49275518	     -0.03762910	      9.79956542	     -2.39430348	     -3.30919333	      1.38944753	      0.02425043	    -23.13263299	     -3.52396965	     -7.49999987	     13.43301021	     -4.15549572	      3.08369353	      6.24262965	      0.10895444	     -8.70147662	     -0.74009152	     -7.49999987	     -4.60724898	     -1.51234711	    -12.21512700	     80.24703082	    -56.67384460	     32.30939560	    114.52870799	     87.81232428	    -19.17301114	    -55.92826826	    -66.46350782	    124.70806381	     78.78569536
      2.66666670	     -8.86590859	     -0.11037425	      2.20191615	      0.34487142	      1.46836031	     -0.03588628	      9.84397730	     -2.59665615	     -2.95147368	      1.29984100	      0.02268651	    -23.53972000	     -2.83451803	     -7.49999987	     13.54259912	     -4.26485817	      2.96656545	      6.13573419	      0.10708876	     -9.60830177	     -0.51132594	     -7.49999987	     -4.16468276	     -1.51020727	    -12.18889284	     79.00694740	    -56.92204402	     31.60317374	    115.08718600	     88.11353643	    -19.71420227	    -54.43699824	    -65.93618925	    125.19360961	     78.90336252
      2.68333330	     -8.80648503	     -0.08302350	      2.16295846	      0.34434517	      1.44644520	     -0.03442734	      9.63231945	     -2.67695652	     -3.12880390	      1.25366303	      0.02188055	    -23.87770810	     -2.96904583	     -7.49999987	     13.47551652	     -4.49830637	      2.81576239	      6.17813380	      0.10782878	    -10.80365320	     -0.41050560	     -7.49999987	     -4.30786732	     -1.56007367	    -12.30665661	     78.07711518	    -56.88014405	     31.68104242	    115.39866428	     88.20149857	    -19.79888412	    -53.56417959	    -65.80507813	    125.52216194	     78.90830219
      2.70000000	     -9.16687453	     -0.17990412	      2.18936309	      0.34102258	      1.42660707	     -0.02911623	      9.97787775	     -2.45317714	     -3.36039097	      1.46391546	      0.02555014	    -24.57704377	     -3.31784342	     -7.49999987	     13.90432495	     -4.98042137	      2.73633629	      6.19612791	      0.10814283	    -12.56535241	     -1.14781532	     -7.49999987	     -4.43117419	     -1.97435153	    -12.49526415	     73.97727287	    -56.76012255	     26.90448315	    116.50198066	     89.71229595	    -20.77872202	    -53.07955219	    -66.63430324	    126.10994053	     78.59322478
      2.71666670	     -9.22466848	     -0.42594798	      2.05683236	      0.34084112	      1.39830737	     -0.02766349	     10.34845441	     -2.16541513	     -3.43871677	      2.02419241	      0.03532882	    -25.05791442	     -3.72484567	     -7.49999987	     14.18592985	     -5.59587009	      2.90175164	      6.37264719	      0.11122368	    -13.82275644	     -1.09796469	     -7.49999987	     -4.90631341	     -1.79224057	    -12.58590879	     72.65645082	    -56.86091503	     25.78777533	    117.56353202	     88.96828394	    -21.91644633	    -51.86070961	    -67.37878446	    126.94633396	     76.99628969
      2.73333330	     -9.26323949	     -0.65495008	      2.08267612	      0.34139914	      1.37195767	     -0.02619502	     10.76016586	     -1.94103249	     -4.02661314	      2.52821507	      0.04412568	    -25.53397486	     -3.81263367	     -7.49999987	     14.36997193	     -6.18357956	      2.73039097	      6.32524375	      0.11039633	    -15.71546313	     -1.17169471	     -7.49999987	     -5.31660723	     -1.69309159	    -13.02679802	     71.35556694	    -57.00331194	     25.48742784	    118.30950568	     90.39404473	    -22.25069280	    -51.27020680	    -67.84858564	    128.05678375	     76.29940274
      2.75000000	     -9.47326104	     -0.79784970	      2.52111522	      0.34152115	      1.34243049	     -0.02541988	     11.41851802	     -2.07451424	     -4.63206865	      2.98218763	      0.05204899	    -25.96838467	     -3.40849115	     -7.49999987	     14.99005598	     -6.54362225	      2.49384947	      6.65468561	      0.11614617	    -17.60255988	     -1.34839111	     -7.49999987	     -5.58929873	     -1.92050313	    -13.68372065	     69.37491857	    -57.07963552	     24.33218405	    119.67452406	     89.83810944	    -22.74896196	    -50.69875849	    -67.93329685	    129.40860088	     75.44207642
